<svg xmlns="http://www.w3.org/2000/svg" xmlns:xlink="http://www.w3.org/1999/xlink" width="305" zoomAndPan="magnify" viewBox="0 0 228.75 228.749995" height="305" preserveAspectRatio="xMidYMid meet" version="1.0"><defs><clipPath id="9f2fb0b097"><path d="M 61 49 L 225 49 L 225 180 L 61 180 Z M 61 49 " clip-rule="nonzero"/></clipPath><clipPath id="d364deb196"><path d="M 113.957031 0 L 227.851562 113.898438 L 113.957031 227.792969 L 0.0585938 113.898438 Z M 113.957031 0 " clip-rule="nonzero"/></clipPath><clipPath id="d503fb890a"><path d="M 113.957031 0 L 227.851562 113.898438 L 113.957031 227.792969 L 0.0585938 113.898438 Z M 113.957031 0 " clip-rule="nonzero"/></clipPath><clipPath id="ed76133a55"><path d="M 87 70 L 196 70 L 196 158 L 87 158 Z M 87 70 " clip-rule="nonzero"/></clipPath><clipPath id="60bf375698"><path d="M 121.820312 38.328125 L 197.574219 114.082031 L 121.820312 189.835938 L 46.066406 114.082031 Z M 121.820312 38.328125 " clip-rule="nonzero"/></clipPath><clipPath id="89d0c49c16"><path d="M 121.820312 38.328125 L 197.574219 114.082031 L 121.820312 189.835938 L 46.066406 114.082031 Z M 121.820312 38.328125 " clip-rule="nonzero"/></clipPath></defs><g clip-path="url(#9f2fb0b097)"><g clip-path="url(#d364deb196)"><g clip-path="url(#d503fb890a)"><path fill="#007dc6" d="M 220.082031 120.132812 L 70.027344 178.847656 C 69.4375 179.082031 68.824219 179.21875 68.191406 179.261719 C 67.554688 179.304688 66.929688 179.25 66.3125 179.101562 C 65.695312 178.949219 65.117188 178.707031 64.574219 178.378906 C 64.03125 178.046875 63.554688 177.644531 63.136719 177.164062 C 62.71875 176.683594 62.382812 176.15625 62.132812 175.570312 C 61.878906 174.988281 61.71875 174.382812 61.65625 173.75 C 61.589844 173.117188 61.625 172.492188 61.753906 171.871094 C 61.882812 171.246094 62.105469 170.660156 62.414062 170.105469 L 93.515625 114.21875 L 62.414062 58.328125 C 62.105469 57.773438 61.882812 57.1875 61.753906 56.5625 C 61.625 55.941406 61.589844 55.316406 61.65625 54.683594 C 61.71875 54.050781 61.878906 53.445312 62.132812 52.863281 C 62.382812 52.28125 62.71875 51.75 63.136719 51.269531 C 63.554688 50.789062 64.03125 50.386719 64.574219 50.054688 C 65.117188 49.726562 65.695312 49.484375 66.3125 49.332031 C 66.929688 49.183594 67.554688 49.128906 68.191406 49.171875 C 68.824219 49.214844 69.4375 49.351562 70.027344 49.585938 L 220.082031 108.300781 C 220.722656 108.484375 221.320312 108.765625 221.875 109.144531 C 222.425781 109.523438 222.902344 109.976562 223.304688 110.511719 C 223.707031 111.046875 224.015625 111.628906 224.226562 112.261719 C 224.441406 112.898438 224.546875 113.546875 224.546875 114.21875 C 224.546875 114.886719 224.441406 115.535156 224.226562 116.171875 C 224.015625 116.804688 223.707031 117.386719 223.304688 117.921875 C 222.902344 118.457031 222.425781 118.910156 221.875 119.289062 C 221.320312 119.667969 220.722656 119.949219 220.082031 120.132812 Z M 220.082031 120.132812 " fill-opacity="1" fill-rule="nonzero"/></g></g></g><g clip-path="url(#ed76133a55)"><g clip-path="url(#60bf375698)"><g clip-path="url(#89d0c49c16)"><path fill="#ffffff" d="M 192.253906 118.058594 L 92.664062 157.027344 C 92.273438 157.179688 91.867188 157.273438 91.445312 157.300781 C 91.027344 157.328125 90.609375 157.292969 90.203125 157.195312 C 89.792969 157.09375 89.40625 156.933594 89.046875 156.714844 C 88.6875 156.496094 88.371094 156.226562 88.09375 155.910156 C 87.816406 155.589844 87.59375 155.238281 87.425781 154.851562 C 87.257812 154.464844 87.152344 154.0625 87.109375 153.644531 C 87.066406 153.222656 87.089844 152.808594 87.175781 152.394531 C 87.261719 151.980469 87.40625 151.59375 87.613281 151.226562 L 108.253906 114.132812 L 87.613281 77.039062 C 87.40625 76.671875 87.261719 76.28125 87.175781 75.867188 C 87.089844 75.457031 87.066406 75.039062 87.109375 74.621094 C 87.152344 74.199219 87.257812 73.796875 87.425781 73.410156 C 87.59375 73.023438 87.816406 72.671875 88.09375 72.355469 C 88.371094 72.035156 88.6875 71.765625 89.046875 71.546875 C 89.40625 71.328125 89.792969 71.167969 90.203125 71.070312 C 90.609375 70.96875 91.027344 70.933594 91.445312 70.960938 C 91.867188 70.988281 92.273438 71.082031 92.664062 71.234375 L 192.253906 110.207031 C 192.683594 110.328125 193.078125 110.511719 193.445312 110.765625 C 193.808594 111.015625 194.128906 111.316406 194.394531 111.671875 C 194.660156 112.027344 194.867188 112.414062 195.007812 112.835938 C 195.148438 113.253906 195.21875 113.6875 195.21875 114.132812 C 195.21875 114.574219 195.148438 115.007812 195.007812 115.429688 C 194.867188 115.847656 194.660156 116.238281 194.394531 116.589844 C 194.128906 116.945312 193.808594 117.246094 193.445312 117.5 C 193.078125 117.75 192.683594 117.9375 192.253906 118.058594 Z M 192.253906 118.058594 " fill-opacity="1" fill-rule="nonzero"/></g></g></g></svg>