<svg xmlns="http://www.w3.org/2000/svg" xmlns:xlink="http://www.w3.org/1999/xlink" width="2258" zoomAndPan="magnify" viewBox="0 0 1693.5 529.499989" height="706" preserveAspectRatio="xMidYMid meet" version="1.0"><defs><g/><clipPath id="ab65669f70"><path d="M 10.132812 226.535156 L 1692.324219 226.535156 L 1692.324219 409.980469 L 10.132812 409.980469 Z M 10.132812 226.535156 " clip-rule="nonzero"/></clipPath><clipPath id="a7a59273ab"><path d="M 0.132812 0.535156 L 1682.324219 0.535156 L 1682.324219 183.980469 L 0.132812 183.980469 Z M 0.132812 0.535156 " clip-rule="nonzero"/></clipPath><clipPath id="cfbe051c8e"><rect x="0" width="1683" y="0" height="184"/></clipPath><clipPath id="a0cdd3cce0"><path d="M 373.257812 0 L 549.578125 0 L 549.578125 238 L 373.257812 238 Z M 373.257812 0 " clip-rule="nonzero"/></clipPath><clipPath id="2907dac1c0"><path d="M 461.417969 0 L 549.578125 237.941406 L 373.257812 237.941406 Z M 461.417969 0 " clip-rule="nonzero"/></clipPath><clipPath id="d561cad5d4"><path d="M 0.257812 0 L 176.578125 0 L 176.578125 238 L 0.257812 238 Z M 0.257812 0 " clip-rule="nonzero"/></clipPath><clipPath id="8bcb344e9e"><path d="M 88.417969 0 L 176.578125 237.941406 L 0.257812 237.941406 Z M 88.417969 0 " clip-rule="nonzero"/></clipPath><clipPath id="699e83342f"><rect x="0" width="177" y="0" height="238"/></clipPath><clipPath id="84dcb3e534"><rect x="0" width="372" y="0" height="43"/></clipPath><clipPath id="67c7acbf24"><path d="M 10.132812 406.789062 L 1692.324219 406.789062 L 1692.324219 528.925781 L 10.132812 528.925781 Z M 10.132812 406.789062 " clip-rule="nonzero"/></clipPath><clipPath id="163e87793e"><path d="M 0.132812 0.789062 L 1682.324219 0.789062 L 1682.324219 122.925781 L 0.132812 122.925781 Z M 0.132812 0.789062 " clip-rule="nonzero"/></clipPath><clipPath id="83e5e300bc"><rect x="0" width="1683" y="0" height="123"/></clipPath><clipPath id="1ad3f71566"><path d="M 6 403 L 1692.453125 403 L 1692.453125 411 L 6 411 Z M 6 403 " clip-rule="nonzero"/></clipPath></defs><g clip-path="url(#ab65669f70)"><g transform="matrix(1, 0, 0, 1, 10, 226)"><g clip-path="url(#cfbe051c8e)"><g clip-path="url(#a7a59273ab)"><path fill="#007dc6" d="M 0.132812 0.535156 L 1682.664062 0.535156 L 1682.664062 183.980469 L 0.132812 183.980469 Z M 0.132812 0.535156 " fill-opacity="1" fill-rule="nonzero"/></g></g></g></g><g clip-path="url(#a0cdd3cce0)"><g clip-path="url(#2907dac1c0)"><g transform="matrix(1, 0, 0, 1, 373, 0)"><g clip-path="url(#699e83342f)"><g clip-path="url(#d561cad5d4)"><g clip-path="url(#8bcb344e9e)"><path fill="#007dc6" d="M 0.257812 0 L 176.578125 0 L 176.578125 237.621094 L 0.257812 237.621094 Z M 0.257812 0 " fill-opacity="1" fill-rule="nonzero"/></g></g></g></g></g></g><g transform="matrix(1, 0, 0, 1, 31, 223)"><g clip-path="url(#84dcb3e534)"><g fill="#ffffff" fill-opacity="1"><g transform="translate(0.99299, 33.591529)"><g><path d="M 16.84375 -15.46875 C 16.84375 -13.257812 16.085938 -11.5625 14.578125 -10.375 C 13.078125 -9.1875 10.921875 -8.59375 8.109375 -8.59375 L 5.546875 -8.59375 L 5.546875 0 L 3 0 L 3 -21.84375 L 8.671875 -21.84375 C 14.117188 -21.84375 16.84375 -19.71875 16.84375 -15.46875 Z M 5.546875 -10.765625 L 7.828125 -10.765625 C 10.078125 -10.765625 11.703125 -11.128906 12.703125 -11.859375 C 13.710938 -12.585938 14.21875 -13.753906 14.21875 -15.359375 C 14.21875 -16.796875 13.742188 -17.867188 12.796875 -18.578125 C 11.859375 -19.285156 10.382812 -19.640625 8.375 -19.640625 L 5.546875 -19.640625 Z M 5.546875 -10.765625 "/></g></g></g><g fill="#ffffff" fill-opacity="1"><g transform="translate(19.413898, 33.591529)"><g><path d="M 10.09375 -16.671875 C 10.820312 -16.671875 11.476562 -16.609375 12.0625 -16.484375 L 11.71875 -14.1875 C 11.039062 -14.34375 10.441406 -14.421875 9.921875 -14.421875 C 8.597656 -14.421875 7.460938 -13.878906 6.515625 -12.796875 C 5.578125 -11.722656 5.109375 -10.382812 5.109375 -8.78125 L 5.109375 0 L 2.625 0 L 2.625 -16.375 L 4.671875 -16.375 L 4.953125 -13.34375 L 5.078125 -13.34375 C 5.679688 -14.40625 6.410156 -15.222656 7.265625 -15.796875 C 8.128906 -16.378906 9.070312 -16.671875 10.09375 -16.671875 Z M 10.09375 -16.671875 "/></g></g></g><g fill="#ffffff" fill-opacity="1"><g transform="translate(31.903662, 33.591529)"><g><path d="M 16.765625 -8.203125 C 16.765625 -5.535156 16.09375 -3.453125 14.75 -1.953125 C 13.40625 -0.453125 11.546875 0.296875 9.171875 0.296875 C 7.703125 0.296875 6.398438 -0.046875 5.265625 -0.734375 C 4.128906 -1.421875 3.253906 -2.40625 2.640625 -3.6875 C 2.023438 -4.96875 1.71875 -6.472656 1.71875 -8.203125 C 1.71875 -10.867188 2.382812 -12.945312 3.71875 -14.4375 C 5.050781 -15.925781 6.90625 -16.671875 9.28125 -16.671875 C 11.570312 -16.671875 13.390625 -15.90625 14.734375 -14.375 C 16.085938 -12.851562 16.765625 -10.796875 16.765625 -8.203125 Z M 4.28125 -8.203125 C 4.28125 -6.109375 4.695312 -4.515625 5.53125 -3.421875 C 6.375 -2.328125 7.609375 -1.78125 9.234375 -1.78125 C 10.859375 -1.78125 12.085938 -2.320312 12.921875 -3.40625 C 13.765625 -4.5 14.1875 -6.097656 14.1875 -8.203125 C 14.1875 -10.285156 13.765625 -11.863281 12.921875 -12.9375 C 12.085938 -14.019531 10.847656 -14.5625 9.203125 -14.5625 C 7.578125 -14.5625 6.347656 -14.03125 5.515625 -12.96875 C 4.691406 -11.90625 4.28125 -10.316406 4.28125 -8.203125 Z M 4.28125 -8.203125 "/></g></g></g><g fill="#ffffff" fill-opacity="1"><g transform="translate(50.38433, 33.591529)"><g><path d="M 9.171875 0.296875 C 6.796875 0.296875 4.957031 -0.429688 3.65625 -1.890625 C 2.363281 -3.347656 1.71875 -5.410156 1.71875 -8.078125 C 1.71875 -10.816406 2.375 -12.929688 3.6875 -14.421875 C 5.007812 -15.921875 6.894531 -16.671875 9.34375 -16.671875 C 10.125 -16.671875 10.90625 -16.582031 11.6875 -16.40625 C 12.476562 -16.238281 13.097656 -16.039062 13.546875 -15.8125 L 12.78125 -13.71875 C 12.238281 -13.9375 11.644531 -14.113281 11 -14.25 C 10.351562 -14.394531 9.78125 -14.46875 9.28125 -14.46875 C 5.945312 -14.46875 4.28125 -12.347656 4.28125 -8.109375 C 4.28125 -6.097656 4.6875 -4.554688 5.5 -3.484375 C 6.3125 -2.410156 7.515625 -1.875 9.109375 -1.875 C 10.472656 -1.875 11.875 -2.164062 13.3125 -2.75 L 13.3125 -0.546875 C 12.21875 0.015625 10.835938 0.296875 9.171875 0.296875 Z M 9.171875 0.296875 "/></g></g></g><g fill="#ffffff" fill-opacity="1"><g transform="translate(64.950742, 33.591529)"><g><path d="M 13.828125 0 L 13.828125 -10.59375 C 13.828125 -11.925781 13.523438 -12.921875 12.921875 -13.578125 C 12.316406 -14.234375 11.363281 -14.5625 10.0625 -14.5625 C 8.34375 -14.5625 7.085938 -14.09375 6.296875 -13.15625 C 5.503906 -12.21875 5.109375 -10.6875 5.109375 -8.5625 L 5.109375 0 L 2.625 0 L 2.625 -23.25 L 5.109375 -23.25 L 5.109375 -16.203125 C 5.109375 -15.359375 5.066406 -14.660156 4.984375 -14.109375 L 5.140625 -14.109375 C 5.628906 -14.890625 6.320312 -15.503906 7.21875 -15.953125 C 8.125 -16.410156 9.15625 -16.640625 10.3125 -16.640625 C 12.3125 -16.640625 13.8125 -16.160156 14.8125 -15.203125 C 15.8125 -14.253906 16.3125 -12.75 16.3125 -10.6875 L 16.3125 0 Z M 13.828125 0 "/></g></g></g><g fill="#ffffff" fill-opacity="1"><g transform="translate(83.730213, 33.591529)"><g><path d="M 12.703125 0 L 12.203125 -2.328125 L 12.078125 -2.328125 C 11.265625 -1.304688 10.453125 -0.613281 9.640625 -0.25 C 8.828125 0.113281 7.816406 0.296875 6.609375 0.296875 C 4.984375 0.296875 3.707031 -0.117188 2.78125 -0.953125 C 1.863281 -1.785156 1.40625 -2.976562 1.40625 -4.53125 C 1.40625 -7.832031 4.050781 -9.5625 9.34375 -9.71875 L 12.109375 -9.8125 L 12.109375 -10.828125 C 12.109375 -12.109375 11.832031 -13.054688 11.28125 -13.671875 C 10.726562 -14.285156 9.847656 -14.59375 8.640625 -14.59375 C 7.273438 -14.59375 5.726562 -14.175781 4 -13.34375 L 3.234375 -15.234375 C 4.046875 -15.671875 4.929688 -16.015625 5.890625 -16.265625 C 6.847656 -16.515625 7.8125 -16.640625 8.78125 -16.640625 C 10.738281 -16.640625 12.1875 -16.207031 13.125 -15.34375 C 14.0625 -14.476562 14.53125 -13.085938 14.53125 -11.171875 L 14.53125 0 Z M 7.09375 -1.75 C 8.632812 -1.75 9.847656 -2.171875 10.734375 -3.015625 C 11.617188 -3.859375 12.0625 -5.046875 12.0625 -6.578125 L 12.0625 -8.046875 L 9.578125 -7.953125 C 7.609375 -7.878906 6.1875 -7.570312 5.3125 -7.03125 C 4.4375 -6.488281 4 -5.644531 4 -4.5 C 4 -3.601562 4.269531 -2.921875 4.8125 -2.453125 C 5.351562 -1.984375 6.113281 -1.75 7.09375 -1.75 Z M 7.09375 -1.75 "/></g></g></g><g fill="#ffffff" fill-opacity="1"><g transform="translate(100.746762, 33.591529)"><g><path d="M 5.109375 0 L 2.625 0 L 2.625 -16.375 L 5.109375 -16.375 Z M 2.421875 -20.8125 C 2.421875 -21.375 2.554688 -21.785156 2.828125 -22.046875 C 3.109375 -22.316406 3.460938 -22.453125 3.890625 -22.453125 C 4.285156 -22.453125 4.625 -22.316406 4.90625 -22.046875 C 5.195312 -21.773438 5.34375 -21.363281 5.34375 -20.8125 C 5.34375 -20.25 5.195312 -19.832031 4.90625 -19.5625 C 4.625 -19.289062 4.285156 -19.15625 3.890625 -19.15625 C 3.460938 -19.15625 3.109375 -19.289062 2.828125 -19.5625 C 2.554688 -19.832031 2.421875 -20.25 2.421875 -20.8125 Z M 2.421875 -20.8125 "/></g></g></g><g fill="#ffffff" fill-opacity="1"><g transform="translate(108.485638, 33.591529)"><g><path d="M 13.828125 0 L 13.828125 -10.59375 C 13.828125 -11.925781 13.523438 -12.921875 12.921875 -13.578125 C 12.316406 -14.234375 11.363281 -14.5625 10.0625 -14.5625 C 8.351562 -14.5625 7.097656 -14.097656 6.296875 -13.171875 C 5.503906 -12.242188 5.109375 -10.71875 5.109375 -8.59375 L 5.109375 0 L 2.625 0 L 2.625 -16.375 L 4.640625 -16.375 L 5.046875 -14.125 L 5.171875 -14.125 C 5.679688 -14.9375 6.390625 -15.5625 7.296875 -16 C 8.210938 -16.445312 9.238281 -16.671875 10.375 -16.671875 C 12.34375 -16.671875 13.820312 -16.191406 14.8125 -15.234375 C 15.8125 -14.285156 16.3125 -12.769531 16.3125 -10.6875 L 16.3125 0 Z M 13.828125 0 "/></g></g></g><g fill="#ffffff" fill-opacity="1"><g transform="translate(127.265101, 33.591529)"><g/></g></g><g fill="#ffffff" fill-opacity="1"><g transform="translate(135.21314, 33.591529)"><g><path d="M 12.703125 0 L 12.203125 -2.328125 L 12.078125 -2.328125 C 11.265625 -1.304688 10.453125 -0.613281 9.640625 -0.25 C 8.828125 0.113281 7.816406 0.296875 6.609375 0.296875 C 4.984375 0.296875 3.707031 -0.117188 2.78125 -0.953125 C 1.863281 -1.785156 1.40625 -2.976562 1.40625 -4.53125 C 1.40625 -7.832031 4.050781 -9.5625 9.34375 -9.71875 L 12.109375 -9.8125 L 12.109375 -10.828125 C 12.109375 -12.109375 11.832031 -13.054688 11.28125 -13.671875 C 10.726562 -14.285156 9.847656 -14.59375 8.640625 -14.59375 C 7.273438 -14.59375 5.726562 -14.175781 4 -13.34375 L 3.234375 -15.234375 C 4.046875 -15.671875 4.929688 -16.015625 5.890625 -16.265625 C 6.847656 -16.515625 7.8125 -16.640625 8.78125 -16.640625 C 10.738281 -16.640625 12.1875 -16.207031 13.125 -15.34375 C 14.0625 -14.476562 14.53125 -13.085938 14.53125 -11.171875 L 14.53125 0 Z M 7.09375 -1.75 C 8.632812 -1.75 9.847656 -2.171875 10.734375 -3.015625 C 11.617188 -3.859375 12.0625 -5.046875 12.0625 -6.578125 L 12.0625 -8.046875 L 9.578125 -7.953125 C 7.609375 -7.878906 6.1875 -7.570312 5.3125 -7.03125 C 4.4375 -6.488281 4 -5.644531 4 -4.5 C 4 -3.601562 4.269531 -2.921875 4.8125 -2.453125 C 5.351562 -1.984375 6.113281 -1.75 7.09375 -1.75 Z M 7.09375 -1.75 "/></g></g></g><g fill="#ffffff" fill-opacity="1"><g transform="translate(152.229689, 33.591529)"><g><path d="M 10.09375 -16.671875 C 10.820312 -16.671875 11.476562 -16.609375 12.0625 -16.484375 L 11.71875 -14.1875 C 11.039062 -14.34375 10.441406 -14.421875 9.921875 -14.421875 C 8.597656 -14.421875 7.460938 -13.878906 6.515625 -12.796875 C 5.578125 -11.722656 5.109375 -10.382812 5.109375 -8.78125 L 5.109375 0 L 2.625 0 L 2.625 -16.375 L 4.671875 -16.375 L 4.953125 -13.34375 L 5.078125 -13.34375 C 5.679688 -14.40625 6.410156 -15.222656 7.265625 -15.796875 C 8.128906 -16.378906 9.070312 -16.671875 10.09375 -16.671875 Z M 10.09375 -16.671875 "/></g></g></g><g fill="#ffffff" fill-opacity="1"><g transform="translate(164.71946, 33.591529)"><g><path d="M 10.09375 -16.671875 C 10.820312 -16.671875 11.476562 -16.609375 12.0625 -16.484375 L 11.71875 -14.1875 C 11.039062 -14.34375 10.441406 -14.421875 9.921875 -14.421875 C 8.597656 -14.421875 7.460938 -13.878906 6.515625 -12.796875 C 5.578125 -11.722656 5.109375 -10.382812 5.109375 -8.78125 L 5.109375 0 L 2.625 0 L 2.625 -16.375 L 4.671875 -16.375 L 4.953125 -13.34375 L 5.078125 -13.34375 C 5.679688 -14.40625 6.410156 -15.222656 7.265625 -15.796875 C 8.128906 -16.378906 9.070312 -16.671875 10.09375 -16.671875 Z M 10.09375 -16.671875 "/></g></g></g><g fill="#ffffff" fill-opacity="1"><g transform="translate(177.209215, 33.591529)"><g><path d="M 9.546875 0.296875 C 7.128906 0.296875 5.21875 -0.4375 3.8125 -1.90625 C 2.414062 -3.382812 1.71875 -5.429688 1.71875 -8.046875 C 1.71875 -10.691406 2.363281 -12.789062 3.65625 -14.34375 C 4.957031 -15.894531 6.707031 -16.671875 8.90625 -16.671875 C 10.957031 -16.671875 12.578125 -15.992188 13.765625 -14.640625 C 14.960938 -13.296875 15.5625 -11.519531 15.5625 -9.3125 L 15.5625 -7.734375 L 4.28125 -7.734375 C 4.332031 -5.816406 4.816406 -4.359375 5.734375 -3.359375 C 6.660156 -2.367188 7.960938 -1.875 9.640625 -1.875 C 11.398438 -1.875 13.140625 -2.238281 14.859375 -2.96875 L 14.859375 -0.765625 C 13.984375 -0.378906 13.15625 -0.109375 12.375 0.046875 C 11.59375 0.210938 10.648438 0.296875 9.546875 0.296875 Z M 8.875 -14.59375 C 7.5625 -14.59375 6.515625 -14.164062 5.734375 -13.3125 C 4.953125 -12.457031 4.488281 -11.269531 4.34375 -9.75 L 12.90625 -9.75 C 12.90625 -11.3125 12.554688 -12.507812 11.859375 -13.34375 C 11.160156 -14.175781 10.164062 -14.59375 8.875 -14.59375 Z M 3.859375 -18.875 C 5.128906 -20.226562 6.015625 -21.222656 6.515625 -21.859375 C 7.023438 -22.503906 7.394531 -23.03125 7.625 -23.4375 L 10.109375 -23.4375 C 10.328125 -23.019531 10.707031 -22.476562 11.25 -21.8125 C 11.789062 -21.15625 12.6875 -20.175781 13.9375 -18.875 L 13.9375 -18.53125 L 12.15625 -18.53125 C 11.28125 -19.082031 10.179688 -20.007812 8.859375 -21.3125 C 7.503906 -19.976562 6.410156 -19.050781 5.578125 -18.53125 L 3.859375 -18.53125 Z M 3.859375 -18.875 "/></g></g></g><g fill="#ffffff" fill-opacity="1"><g transform="translate(194.375176, 33.591529)"><g><path d="M 7.921875 -1.75 C 8.359375 -1.75 8.78125 -1.78125 9.1875 -1.84375 C 9.59375 -1.90625 9.914062 -1.972656 10.15625 -2.046875 L 10.15625 -0.15625 C 9.882812 -0.0195312 9.488281 0.0859375 8.96875 0.171875 C 8.445312 0.253906 7.976562 0.296875 7.5625 0.296875 C 4.394531 0.296875 2.8125 -1.367188 2.8125 -4.703125 L 2.8125 -14.453125 L 0.46875 -14.453125 L 0.46875 -15.640625 L 2.8125 -16.671875 L 3.859375 -20.171875 L 5.28125 -20.171875 L 5.28125 -16.375 L 10.03125 -16.375 L 10.03125 -14.453125 L 5.28125 -14.453125 L 5.28125 -4.8125 C 5.28125 -3.820312 5.515625 -3.0625 5.984375 -2.53125 C 6.453125 -2.007812 7.097656 -1.75 7.921875 -1.75 Z M 7.921875 -1.75 "/></g></g></g><g fill="#ffffff" fill-opacity="1"><g transform="translate(205.176739, 33.591529)"><g/></g></g><g fill="#ffffff" fill-opacity="1"><g transform="translate(213.124762, 33.591529)"><g><path d="M 7.375 -23.25 L 9.484375 -23.25 L 9.484375 7.40625 L 7.375 7.40625 Z M 7.375 -23.25 "/></g></g></g><g fill="#ffffff" fill-opacity="1"><g transform="translate(229.976978, 33.591529)"><g/></g></g><g fill="#ffffff" fill-opacity="1"><g transform="translate(237.925018, 33.591529)"><g><path d="M 13.828125 0 L 13.828125 -10.59375 C 13.828125 -11.925781 13.523438 -12.921875 12.921875 -13.578125 C 12.316406 -14.234375 11.363281 -14.5625 10.0625 -14.5625 C 8.351562 -14.5625 7.097656 -14.097656 6.296875 -13.171875 C 5.503906 -12.242188 5.109375 -10.71875 5.109375 -8.59375 L 5.109375 0 L 2.625 0 L 2.625 -16.375 L 4.640625 -16.375 L 5.046875 -14.125 L 5.171875 -14.125 C 5.679688 -14.9375 6.390625 -15.5625 7.296875 -16 C 8.210938 -16.445312 9.238281 -16.671875 10.375 -16.671875 C 12.34375 -16.671875 13.820312 -16.191406 14.8125 -15.234375 C 15.8125 -14.285156 16.3125 -12.769531 16.3125 -10.6875 L 16.3125 0 Z M 13.828125 0 "/></g></g></g><g fill="#ffffff" fill-opacity="1"><g transform="translate(256.70448, 33.591529)"><g><path d="M 9.546875 0.296875 C 7.128906 0.296875 5.21875 -0.4375 3.8125 -1.90625 C 2.414062 -3.382812 1.71875 -5.429688 1.71875 -8.046875 C 1.71875 -10.691406 2.363281 -12.789062 3.65625 -14.34375 C 4.957031 -15.894531 6.707031 -16.671875 8.90625 -16.671875 C 10.957031 -16.671875 12.578125 -15.992188 13.765625 -14.640625 C 14.960938 -13.296875 15.5625 -11.519531 15.5625 -9.3125 L 15.5625 -7.734375 L 4.28125 -7.734375 C 4.332031 -5.816406 4.816406 -4.359375 5.734375 -3.359375 C 6.660156 -2.367188 7.960938 -1.875 9.640625 -1.875 C 11.398438 -1.875 13.140625 -2.238281 14.859375 -2.96875 L 14.859375 -0.765625 C 13.984375 -0.378906 13.15625 -0.109375 12.375 0.046875 C 11.59375 0.210938 10.648438 0.296875 9.546875 0.296875 Z M 8.875 -14.59375 C 7.5625 -14.59375 6.515625 -14.164062 5.734375 -13.3125 C 4.953125 -12.457031 4.488281 -11.269531 4.34375 -9.75 L 12.90625 -9.75 C 12.90625 -11.3125 12.554688 -12.507812 11.859375 -13.34375 C 11.160156 -14.175781 10.164062 -14.59375 8.875 -14.59375 Z M 8.875 -14.59375 "/></g></g></g><g fill="#ffffff" fill-opacity="1"><g transform="translate(273.870424, 33.591529)"><g><path d="M 6.578125 -8.375 L 0.875 -16.375 L 3.703125 -16.375 L 8.015625 -10.09375 L 12.328125 -16.375 L 15.125 -16.375 L 9.421875 -8.375 L 15.421875 0 L 12.609375 0 L 8.015625 -6.625 L 3.390625 0 L 0.578125 0 Z M 6.578125 -8.375 "/></g></g></g><g fill="#ffffff" fill-opacity="1"><g transform="translate(289.900944, 33.591529)"><g><path d="M 7.921875 -1.75 C 8.359375 -1.75 8.78125 -1.78125 9.1875 -1.84375 C 9.59375 -1.90625 9.914062 -1.972656 10.15625 -2.046875 L 10.15625 -0.15625 C 9.882812 -0.0195312 9.488281 0.0859375 8.96875 0.171875 C 8.445312 0.253906 7.976562 0.296875 7.5625 0.296875 C 4.394531 0.296875 2.8125 -1.367188 2.8125 -4.703125 L 2.8125 -14.453125 L 0.46875 -14.453125 L 0.46875 -15.640625 L 2.8125 -16.671875 L 3.859375 -20.171875 L 5.28125 -20.171875 L 5.28125 -16.375 L 10.03125 -16.375 L 10.03125 -14.453125 L 5.28125 -14.453125 L 5.28125 -4.8125 C 5.28125 -3.820312 5.515625 -3.0625 5.984375 -2.53125 C 6.453125 -2.007812 7.097656 -1.75 7.921875 -1.75 Z M 7.921875 -1.75 "/></g></g></g><g fill="#ffffff" fill-opacity="1"><g transform="translate(300.702523, 33.591529)"><g/></g></g><g fill="#ffffff" fill-opacity="1"><g transform="translate(308.650546, 33.591529)"><g><path d="M 13.1875 -4.46875 C 13.1875 -2.945312 12.617188 -1.769531 11.484375 -0.9375 C 10.347656 -0.113281 8.753906 0.296875 6.703125 0.296875 C 4.535156 0.296875 2.84375 -0.046875 1.625 -0.734375 L 1.625 -3.03125 C 2.414062 -2.632812 3.257812 -2.320312 4.15625 -2.09375 C 5.0625 -1.863281 5.929688 -1.75 6.765625 -1.75 C 8.054688 -1.75 9.050781 -1.953125 9.75 -2.359375 C 10.445312 -2.773438 10.796875 -3.40625 10.796875 -4.25 C 10.796875 -4.894531 10.519531 -5.441406 9.96875 -5.890625 C 9.414062 -6.347656 8.335938 -6.882812 6.734375 -7.5 C 5.210938 -8.0625 4.128906 -8.554688 3.484375 -8.984375 C 2.847656 -9.410156 2.367188 -9.890625 2.046875 -10.421875 C 1.734375 -10.960938 1.578125 -11.609375 1.578125 -12.359375 C 1.578125 -13.691406 2.117188 -14.742188 3.203125 -15.515625 C 4.296875 -16.285156 5.785156 -16.671875 7.671875 -16.671875 C 9.441406 -16.671875 11.164062 -16.3125 12.84375 -15.59375 L 11.96875 -13.578125 C 10.320312 -14.253906 8.832031 -14.59375 7.5 -14.59375 C 6.320312 -14.59375 5.429688 -14.40625 4.828125 -14.03125 C 4.234375 -13.664062 3.9375 -13.160156 3.9375 -12.515625 C 3.9375 -12.078125 4.046875 -11.703125 4.265625 -11.390625 C 4.492188 -11.085938 4.859375 -10.796875 5.359375 -10.515625 C 5.859375 -10.234375 6.816406 -9.832031 8.234375 -9.3125 C 10.171875 -8.601562 11.476562 -7.890625 12.15625 -7.171875 C 12.84375 -6.453125 13.1875 -5.550781 13.1875 -4.46875 Z M 13.1875 -4.46875 "/></g></g></g><g fill="#ffffff" fill-opacity="1"><g transform="translate(323.246834, 33.591529)"><g><path d="M 7.921875 -1.75 C 8.359375 -1.75 8.78125 -1.78125 9.1875 -1.84375 C 9.59375 -1.90625 9.914062 -1.972656 10.15625 -2.046875 L 10.15625 -0.15625 C 9.882812 -0.0195312 9.488281 0.0859375 8.96875 0.171875 C 8.445312 0.253906 7.976562 0.296875 7.5625 0.296875 C 4.394531 0.296875 2.8125 -1.367188 2.8125 -4.703125 L 2.8125 -14.453125 L 0.46875 -14.453125 L 0.46875 -15.640625 L 2.8125 -16.671875 L 3.859375 -20.171875 L 5.28125 -20.171875 L 5.28125 -16.375 L 10.03125 -16.375 L 10.03125 -14.453125 L 5.28125 -14.453125 L 5.28125 -4.8125 C 5.28125 -3.820312 5.515625 -3.0625 5.984375 -2.53125 C 6.453125 -2.007812 7.097656 -1.75 7.921875 -1.75 Z M 7.921875 -1.75 "/></g></g></g><g fill="#ffffff" fill-opacity="1"><g transform="translate(334.048382, 33.591529)"><g><path d="M 16.765625 -8.203125 C 16.765625 -5.535156 16.09375 -3.453125 14.75 -1.953125 C 13.40625 -0.453125 11.546875 0.296875 9.171875 0.296875 C 7.703125 0.296875 6.398438 -0.046875 5.265625 -0.734375 C 4.128906 -1.421875 3.253906 -2.40625 2.640625 -3.6875 C 2.023438 -4.96875 1.71875 -6.472656 1.71875 -8.203125 C 1.71875 -10.867188 2.382812 -12.945312 3.71875 -14.4375 C 5.050781 -15.925781 6.90625 -16.671875 9.28125 -16.671875 C 11.570312 -16.671875 13.390625 -15.90625 14.734375 -14.375 C 16.085938 -12.851562 16.765625 -10.796875 16.765625 -8.203125 Z M 4.28125 -8.203125 C 4.28125 -6.109375 4.695312 -4.515625 5.53125 -3.421875 C 6.375 -2.328125 7.609375 -1.78125 9.234375 -1.78125 C 10.859375 -1.78125 12.085938 -2.320312 12.921875 -3.40625 C 13.765625 -4.5 14.1875 -6.097656 14.1875 -8.203125 C 14.1875 -10.285156 13.765625 -11.863281 12.921875 -12.9375 C 12.085938 -14.019531 10.847656 -14.5625 9.203125 -14.5625 C 7.578125 -14.5625 6.347656 -14.03125 5.515625 -12.96875 C 4.691406 -11.90625 4.28125 -10.316406 4.28125 -8.203125 Z M 4.28125 -8.203125 "/></g></g></g><g fill="#ffffff" fill-opacity="1"><g transform="translate(352.52907, 33.591529)"><g><path d="M 10.25 0.296875 C 9.1875 0.296875 8.210938 0.101562 7.328125 -0.28125 C 6.441406 -0.675781 5.703125 -1.285156 5.109375 -2.109375 L 4.921875 -2.109375 C 5.046875 -1.148438 5.109375 -0.242188 5.109375 0.609375 L 5.109375 7.34375 L 2.625 7.34375 L 2.625 -16.375 L 4.640625 -16.375 L 4.984375 -14.125 L 5.109375 -14.125 C 5.742188 -15.019531 6.484375 -15.664062 7.328125 -16.0625 C 8.179688 -16.46875 9.15625 -16.671875 10.25 -16.671875 C 12.414062 -16.671875 14.085938 -15.925781 15.265625 -14.4375 C 16.453125 -12.957031 17.046875 -10.878906 17.046875 -8.203125 C 17.046875 -5.515625 16.441406 -3.425781 15.234375 -1.9375 C 14.035156 -0.445312 12.375 0.296875 10.25 0.296875 Z M 9.890625 -14.5625 C 8.210938 -14.5625 7 -14.097656 6.25 -13.171875 C 5.507812 -12.242188 5.128906 -10.769531 5.109375 -8.75 L 5.109375 -8.203125 C 5.109375 -5.898438 5.488281 -4.253906 6.25 -3.265625 C 7.019531 -2.273438 8.253906 -1.78125 9.953125 -1.78125 C 11.359375 -1.78125 12.460938 -2.351562 13.265625 -3.5 C 14.066406 -4.644531 14.46875 -6.222656 14.46875 -8.234375 C 14.46875 -10.273438 14.066406 -11.835938 13.265625 -12.921875 C 12.460938 -14.015625 11.335938 -14.5625 9.890625 -14.5625 Z M 9.890625 -14.5625 "/></g></g></g></g></g><g clip-path="url(#67c7acbf24)"><g transform="matrix(1, 0, 0, 1, 10, 406)"><g clip-path="url(#83e5e300bc)"><g clip-path="url(#163e87793e)"><path fill="#0065a0" d="M 0.132812 0.789062 L 1682.339844 0.789062 L 1682.339844 122.925781 L 0.132812 122.925781 Z M 0.132812 0.789062 " fill-opacity="1" fill-rule="nonzero"/></g></g></g></g><g clip-path="url(#1ad3f71566)"><path stroke-linecap="butt" transform="matrix(0.749292, 0, 0, 0.749292, 10.131687, 403.043282)" fill="none" stroke-linejoin="miter" d="M 0.00150175 4.99909 L 2245.041479 4.99909 " stroke="#dbd9d9" stroke-width="10" stroke-opacity="1" stroke-miterlimit="4"/></g></svg>