<svg xmlns="http://www.w3.org/2000/svg" xmlns:xlink="http://www.w3.org/1999/xlink" width="100" zoomAndPan="magnify" viewBox="0 0 75 74.999997" height="100" preserveAspectRatio="xMidYMid meet" version="1.0"><defs><clipPath id="6347ab4901"><path d="M 0 0 L 74.609375 0 L 74.609375 74.609375 L 0 74.609375 Z M 0 0 " clip-rule="nonzero"/></clipPath><clipPath id="156964c7ed"><path d="M 37.304688 0 C 16.703125 0 0 16.703125 0 37.304688 C 0 57.90625 16.703125 74.609375 37.304688 74.609375 C 57.90625 74.609375 74.609375 57.90625 74.609375 37.304688 C 74.609375 16.703125 57.90625 0 37.304688 0 Z M 37.304688 0 " clip-rule="nonzero"/></clipPath><clipPath id="bed4860c74"><path d="M 0 0 L 74.609375 0 L 74.609375 74.609375 L 0 74.609375 Z M 0 0 " clip-rule="nonzero"/></clipPath><clipPath id="fe0c026a84"><path d="M 37.304688 0 C 16.703125 0 0 16.703125 0 37.304688 C 0 57.90625 16.703125 74.609375 37.304688 74.609375 C 57.90625 74.609375 74.609375 57.90625 74.609375 37.304688 C 74.609375 16.703125 57.90625 0 37.304688 0 Z M 37.304688 0 " clip-rule="nonzero"/></clipPath><clipPath id="f0dd734e74"><rect x="0" width="75" y="0" height="75"/></clipPath><clipPath id="5ba0677b57"><path d="M 14.984375 14.984375 L 59.625 14.984375 L 59.625 59.625 L 14.984375 59.625 Z M 14.984375 14.984375 " clip-rule="nonzero"/></clipPath><clipPath id="47ad66fe39"><path d="M 37.304688 14.984375 C 24.976562 14.984375 14.984375 24.976562 14.984375 37.304688 C 14.984375 49.632812 24.976562 59.625 37.304688 59.625 C 49.632812 59.625 59.625 49.632812 59.625 37.304688 C 59.625 24.976562 49.632812 14.984375 37.304688 14.984375 Z M 37.304688 14.984375 " clip-rule="nonzero"/></clipPath><clipPath id="8674be994a"><path d="M 0.984375 0.984375 L 45.625 0.984375 L 45.625 45.625 L 0.984375 45.625 Z M 0.984375 0.984375 " clip-rule="nonzero"/></clipPath><clipPath id="8006c96540"><path d="M 23.304688 0.984375 C 10.976562 0.984375 0.984375 10.976562 0.984375 23.304688 C 0.984375 35.632812 10.976562 45.625 23.304688 45.625 C 35.632812 45.625 45.625 35.632812 45.625 23.304688 C 45.625 10.976562 35.632812 0.984375 23.304688 0.984375 Z M 23.304688 0.984375 " clip-rule="nonzero"/></clipPath><clipPath id="6d4e03b963"><rect x="0" width="46" y="0" height="46"/></clipPath></defs><g clip-path="url(#6347ab4901)"><g clip-path="url(#156964c7ed)"><g transform="matrix(1, 0, 0, 1, 0, -0.000000000000001893)"><g clip-path="url(#f0dd734e74)"><g clip-path="url(#bed4860c74)"><g clip-path="url(#fe0c026a84)"><path fill="#08aa5f" d="M 0 0 L 74.609375 0 L 74.609375 74.609375 L 0 74.609375 Z M 0 0 " fill-opacity="1" fill-rule="nonzero"/></g></g></g></g></g></g><g clip-path="url(#5ba0677b57)"><g clip-path="url(#47ad66fe39)"><g transform="matrix(1, 0, 0, 1, 14, 14)"><g clip-path="url(#6d4e03b963)"><g clip-path="url(#8674be994a)"><g clip-path="url(#8006c96540)"><path fill="#007dc6" d="M 0.984375 0.984375 L 45.625 0.984375 L 45.625 45.625 L 0.984375 45.625 Z M 0.984375 0.984375 " fill-opacity="1" fill-rule="nonzero"/></g></g></g></g></g></g></svg>