<svg xmlns="http://www.w3.org/2000/svg" xmlns:xlink="http://www.w3.org/1999/xlink" width="100" zoomAndPan="magnify" viewBox="0 0 75 74.999997" height="100" preserveAspectRatio="xMidYMid meet" version="1.0"><defs><clipPath id="5da37a1e2a"><path d="M 0 0 L 74.609375 0 L 74.609375 74.609375 L 0 74.609375 Z M 0 0 " clip-rule="nonzero"/></clipPath><clipPath id="748b2875a5"><path d="M 37.304688 0 C 16.703125 0 0 16.703125 0 37.304688 C 0 57.90625 16.703125 74.609375 37.304688 74.609375 C 57.90625 74.609375 74.609375 57.90625 74.609375 37.304688 C 74.609375 16.703125 57.90625 0 37.304688 0 Z M 37.304688 0 " clip-rule="nonzero"/></clipPath><clipPath id="bb005dc74f"><path d="M 0 0 L 74.609375 0 L 74.609375 74.609375 L 0 74.609375 Z M 0 0 " clip-rule="nonzero"/></clipPath><clipPath id="08293707c4"><path d="M 37.304688 0 C 16.703125 0 0 16.703125 0 37.304688 C 0 57.90625 16.703125 74.609375 37.304688 74.609375 C 57.90625 74.609375 74.609375 57.90625 74.609375 37.304688 C 74.609375 16.703125 57.90625 0 37.304688 0 Z M 37.304688 0 " clip-rule="nonzero"/></clipPath><clipPath id="75b51af61f"><rect x="0" width="75" y="0" height="75"/></clipPath><clipPath id="5b2933e783"><path d="M 14.984375 14.984375 L 59.625 14.984375 L 59.625 59.625 L 14.984375 59.625 Z M 14.984375 14.984375 " clip-rule="nonzero"/></clipPath><clipPath id="35f5b2ab95"><path d="M 37.304688 14.984375 C 24.976562 14.984375 14.984375 24.976562 14.984375 37.304688 C 14.984375 49.632812 24.976562 59.625 37.304688 59.625 C 49.632812 59.625 59.625 49.632812 59.625 37.304688 C 59.625 24.976562 49.632812 14.984375 37.304688 14.984375 Z M 37.304688 14.984375 " clip-rule="nonzero"/></clipPath><clipPath id="90333e32f2"><path d="M 0.984375 0.984375 L 45.625 0.984375 L 45.625 45.625 L 0.984375 45.625 Z M 0.984375 0.984375 " clip-rule="nonzero"/></clipPath><clipPath id="25030b04aa"><path d="M 23.304688 0.984375 C 10.976562 0.984375 0.984375 10.976562 0.984375 23.304688 C 0.984375 35.632812 10.976562 45.625 23.304688 45.625 C 35.632812 45.625 45.625 35.632812 45.625 23.304688 C 45.625 10.976562 35.632812 0.984375 23.304688 0.984375 Z M 23.304688 0.984375 " clip-rule="nonzero"/></clipPath><clipPath id="302f8d2cd9"><rect x="0" width="46" y="0" height="46"/></clipPath></defs><g clip-path="url(#5da37a1e2a)"><g clip-path="url(#748b2875a5)"><g transform="matrix(1, 0, 0, 1, 0, -0.000000000000001893)"><g clip-path="url(#75b51af61f)"><g clip-path="url(#bb005dc74f)"><g clip-path="url(#08293707c4)"><path fill="#08aa5f" d="M 0 0 L 74.609375 0 L 74.609375 74.609375 L 0 74.609375 Z M 0 0 " fill-opacity="1" fill-rule="nonzero"/></g></g></g></g></g></g><g clip-path="url(#5b2933e783)"><g clip-path="url(#35f5b2ab95)"><g transform="matrix(1, 0, 0, 1, 14, 14)"><g clip-path="url(#302f8d2cd9)"><g clip-path="url(#90333e32f2)"><g clip-path="url(#25030b04aa)"><path fill="#ffffff" d="M 0.984375 0.984375 L 45.625 0.984375 L 45.625 45.625 L 0.984375 45.625 Z M 0.984375 0.984375 " fill-opacity="1" fill-rule="nonzero"/></g></g></g></g></g></g></svg>